<svg width="181" height="144" viewBox="0 0 181 144" fill="none" xmlns="http://www.w3.org/2000/svg">
<path fill-rule="evenodd" clip-rule="evenodd" d="M40.82 91.44C40.82 94.2235 43.0765 96.48 45.86 96.48H150.98C153.764 96.48 156.02 94.2235 156.02 91.44C156.02 88.6565 153.764 86.4 150.98 86.4H146.66C143.876 86.4 141.62 84.1435 141.62 81.36C141.62 78.5765 143.876 76.32 146.66 76.32H160.34C163.124 76.32 165.38 74.0635 165.38 71.28C165.38 68.4965 163.124 66.24 160.34 66.24H144.5C147.283 66.24 149.54 63.9835 149.54 61.2C149.54 58.4165 147.283 56.16 144.5 56.16H98.42C101.203 56.16 103.46 53.9035 103.46 51.12C103.46 48.3365 101.203 46.08 98.42 46.08H57.38C54.5965 46.08 52.34 48.3365 52.34 51.12C52.34 53.9035 54.5965 56.16 57.38 56.16H28.58C25.7965 56.16 23.54 58.4165 23.54 61.2C23.54 63.9835 25.7965 66.24 28.58 66.24H46.58C49.3635 66.24 51.62 68.4965 51.62 71.28C51.62 74.0635 49.3635 76.32 46.58 76.32H17.78C14.9965 76.32 12.74 78.5765 12.74 81.36C12.74 84.1435 14.9965 86.4 17.78 86.4H45.86C43.0765 86.4 40.82 88.6565 40.82 91.44ZM163.22 96.48C166.004 96.48 168.26 94.2235 168.26 91.44C168.26 88.6565 166.004 86.4 163.22 86.4C160.436 86.4 158.18 88.6565 158.18 91.44C158.18 94.2235 160.436 96.48 163.22 96.48Z" fill="#FDECFF" fill-opacity="0.6"/>
<path fill-rule="evenodd" clip-rule="evenodd" d="M113.449 102.326C115.636 100.918 117.581 99.1619 118.846 97.744ZM120.888 95.3879V95.3879C121.935 94.106 122.875 92.7654 123.71 91.3779C125.546 88.3263 126.87 85.0478 127.678 81.6676C128.496 78.2491 128.788 74.7266 128.551 71.2297C128.345 68.1784 127.736 65.1466 126.723 62.2204C125.719 59.3174 124.317 56.5184 122.517 53.9074C121.444 52.3516 120.229 50.8625 118.873 49.458C116.882 47.396 114.698 45.6332 112.377 44.1706C109.883 42.5991 107.232 41.3743 104.493 40.4974C101.063 39.3992 97.4951 38.8468 93.9266 38.8428C91.1501 38.8396 88.3733 39.1685 85.6608 39.8306C82.607 40.576 79.6347 41.7437 76.8362 43.3356C74.376 44.7349 72.0501 46.462 69.9211 48.518C67.2455 51.1018 65.0782 54.0144 63.4212 57.1315C61.799 60.1832 60.6658 63.431 60.0236 66.7582C59.362 70.186 59.2214 73.6981 59.604 77.1669C60.0998 81.6628 61.4744 86.0859 63.7322 90.1585C65.1768 92.7644 66.9831 95.2268 69.1521 97.4728C72.5954 101.038 76.6155 103.71 80.9211 105.48C86.1571 107.634 91.8154 108.456 97.3725 107.937C102.036 107.502 106.629 106.122 110.841 103.791" fill="white"/>
<path d="M112.962 101.569C112.544 101.838 112.423 102.395 112.692 102.813C112.961 103.231 113.518 103.352 113.936 103.083L112.962 101.569ZM119.518 98.3433C119.849 97.9724 119.816 97.4035 119.446 97.0725C119.075 96.7416 118.506 96.7739 118.175 97.1448L119.518 98.3433ZM120.191 94.8187C119.877 95.2037 119.934 95.7707 120.319 96.085C120.704 96.3994 121.271 96.3421 121.585 95.9571L120.191 94.8187ZM123.71 91.3779L122.939 90.914L122.939 90.914L123.71 91.3779ZM127.678 81.6676L128.554 81.8771L128.554 81.8771L127.678 81.6676ZM128.551 71.2297L129.449 71.1689L128.551 71.2297ZM126.723 62.2204L125.873 62.5147L126.723 62.2204ZM122.517 53.9074L121.776 54.4183L122.517 53.9074ZM118.873 49.458L118.225 50.0832L118.873 49.458ZM112.377 44.1706L112.857 43.4092L112.377 44.1706ZM104.493 40.4974L104.219 41.3545L104.493 40.4974ZM93.9266 38.8428L93.9256 39.7428L93.9266 38.8428ZM85.6608 39.8306L85.8742 40.7049L85.6608 39.8306ZM76.8362 43.3356L76.3912 42.5533L76.8362 43.3356ZM69.9211 48.518L70.5462 49.1654L69.9211 48.518ZM63.4212 57.1315L62.6265 56.709L62.6265 56.709L63.4212 57.1315ZM60.0236 66.7582L59.1399 66.5876L59.1399 66.5876L60.0236 66.7582ZM59.604 77.1669L58.7094 77.2655L59.604 77.1669ZM63.7322 90.1585L64.5193 89.7221L63.7322 90.1585ZM69.1521 97.4728L69.7995 96.8476L69.1521 97.4728ZM80.9211 105.48L80.5787 106.313L80.5787 106.313L80.9211 105.48ZM97.3725 107.937L97.2888 107.041L97.3725 107.937ZM111.277 104.578C111.712 104.337 111.869 103.79 111.628 103.355C111.388 102.92 110.84 102.762 110.405 103.003L111.277 104.578ZM113.936 103.083C116.197 101.628 118.203 99.8171 119.518 98.3433L118.175 97.1448C116.959 98.5067 115.076 100.209 112.962 101.569L113.936 103.083ZM121.585 95.9571C122.659 94.6417 123.625 93.2659 124.481 91.8419L122.939 90.914C122.126 92.2649 121.21 93.5703 120.191 94.8187L121.585 95.9571ZM124.481 91.8419C126.366 88.7099 127.724 85.3453 128.554 81.8771L126.803 81.4582C126.015 84.7503 124.727 87.9428 122.939 90.914L124.481 91.8419ZM128.554 81.8771C129.393 78.3696 129.692 74.756 129.449 71.1689L127.653 71.2905C127.884 74.6971 127.6 78.1285 126.803 81.4582L128.554 81.8771ZM129.449 71.1689C129.237 68.0388 128.613 64.9284 127.574 61.9261L125.873 62.5147C126.859 65.3647 127.452 68.3179 127.653 71.2905L129.449 71.1689ZM127.574 61.9261C126.543 58.9474 125.105 56.0753 123.257 53.3965L121.776 54.4183C123.529 56.9614 124.895 59.6874 125.873 62.5147L127.574 61.9261ZM123.257 53.3965C122.157 51.8002 120.911 50.2729 119.52 48.8329L118.225 50.0832C119.547 51.4521 120.731 52.9029 121.776 54.4183L123.257 53.3965ZM119.52 48.8329C117.478 46.7185 115.238 44.91 112.857 43.4092L111.897 44.932C114.157 46.3564 116.285 48.0736 118.225 50.0832L119.52 48.8329ZM112.857 43.4092C110.298 41.7967 107.578 40.5399 104.768 39.6402L104.219 41.3545C106.887 42.2086 109.469 43.4016 111.897 44.932L112.857 43.4092ZM104.768 39.6402C101.248 38.5135 97.5882 37.9469 93.9276 37.9428L93.9256 39.7428C97.402 39.7467 100.878 40.2849 104.219 41.3545L104.768 39.6402ZM93.9276 37.9428C91.0794 37.9396 88.2306 38.2769 85.4474 38.9563L85.8742 40.7049C88.516 40.0601 91.2208 39.7397 93.9256 39.7428L93.9276 37.9428ZM85.4474 38.9563C82.3139 39.7211 79.2635 40.9195 76.3912 42.5533L77.2811 44.1179C80.006 42.568 82.9002 41.4309 85.8742 40.7049L85.4474 38.9563ZM76.3912 42.5533C73.8661 43.9896 71.4796 45.7618 69.2959 47.8706L70.5462 49.1654C72.6207 47.1622 74.8859 45.4803 77.2811 44.1179L76.3912 42.5533ZM69.2959 47.8706C66.5515 50.5208 64.3273 53.5096 62.6265 56.709L64.2159 57.5539C65.8291 54.5192 67.9395 51.6828 70.5462 49.1654L69.2959 47.8706ZM62.6265 56.709C60.9615 59.8412 59.7988 63.174 59.1399 66.5876L60.9073 66.9288C61.5328 63.688 62.6364 60.5253 64.2159 57.5539L62.6265 56.709ZM59.1399 66.5876C58.4611 70.1044 58.3169 73.7072 58.7094 77.2655L60.4985 77.0682C60.1259 73.689 60.2628 70.2677 60.9073 66.9288L59.1399 66.5876ZM58.7094 77.2655C59.218 81.8776 60.6283 86.4159 62.945 90.5949L64.5193 89.7221C62.3205 85.756 60.9816 81.448 60.4985 77.0682L58.7094 77.2655ZM62.945 90.5949C64.4275 93.2689 66.2806 95.7949 68.5047 98.098L69.7995 96.8476C67.6856 94.6586 65.9262 92.2599 64.5193 89.7221L62.945 90.5949ZM68.5047 98.098C72.0359 101.755 76.1603 104.496 80.5787 106.313L81.2634 104.648C77.0706 102.924 73.155 100.322 69.7995 96.8476L68.5047 98.098ZM80.5787 106.313C85.951 108.522 91.7556 109.366 97.4562 108.834L97.2888 107.041C91.8752 107.547 86.3632 106.746 81.2634 104.648L80.5787 106.313ZM97.4562 108.834C102.241 108.387 106.954 106.971 111.277 104.578L110.405 103.003C106.304 105.273 101.832 106.617 97.2888 107.041L97.4562 108.834Z" fill="#C14DF0"/>
<path d="M127.58 32.4V36.72" stroke="#F9BDFE" stroke-width="1.8" stroke-linecap="round" stroke-linejoin="round"/>
<path d="M127.58 42.48V46.8" stroke="#F9BDFE" stroke-width="1.8" stroke-linecap="round" stroke-linejoin="round"/>
<path d="M120.38 39.6H124.7" stroke="#F9BDFE" stroke-width="1.8" stroke-linecap="round" stroke-linejoin="round"/>
<path d="M130.46 39.6H134.78" stroke="#F9BDFE" stroke-width="1.8" stroke-linecap="round" stroke-linejoin="round"/>
<path d="M67.82 106.56V109.44" stroke="#F9BDFE" stroke-width="1.8" stroke-linecap="round" stroke-linejoin="round"/>
<path d="M67.82 115.2V118.08" stroke="#F9BDFE" stroke-width="1.8" stroke-linecap="round" stroke-linejoin="round"/>
<path d="M62.0601 112.32H64.9401" stroke="#F9BDFE" stroke-width="1.8" stroke-linecap="round" stroke-linejoin="round"/>
<path d="M70.7 112.32H73.58" stroke="#F9BDFE" stroke-width="1.8" stroke-linecap="round" stroke-linejoin="round"/>
<path fill-rule="evenodd" clip-rule="evenodd" d="M83.4313 45.1447C81.9634 45.6954 80.5295 46.3646 79.1442 47.1525C76.9916 48.377 74.9564 49.8882 73.0935 51.6872C72.3298 52.4246 71.6135 53.1927 70.9446 53.9876M68.8747 56.7552C68.3428 57.5589 67.8532 58.3829 67.4062 59.2239C67.076 59.8451 66.769 60.4755 66.4851 61.1139" fill="white"/>
<path d="M83.7474 45.9873C84.2128 45.8128 84.4485 45.2939 84.274 44.8286C84.0994 44.3632 83.5806 44.1274 83.1152 44.302L83.7474 45.9873ZM79.1442 47.1525L79.5892 47.9348L79.1442 47.1525ZM73.0935 51.6872L72.4683 51.0398L73.0935 51.6872ZM70.256 53.4081C69.9359 53.7884 69.9848 54.3561 70.3651 54.6762C70.7454 54.9962 71.3131 54.9474 71.6332 54.5671L70.256 53.4081ZM69.6252 57.2518C69.8995 56.8373 69.7859 56.2789 69.3713 56.0046C68.9568 55.7303 68.3984 55.844 68.1241 56.2585L69.6252 57.2518ZM67.4062 59.2239L68.2009 59.6464L68.2009 59.6464L67.4062 59.2239ZM65.6627 60.7482C65.4608 61.2024 65.6653 61.7343 66.1195 61.9363C66.5737 62.1382 67.1056 61.9337 67.3075 61.4795L65.6627 60.7482ZM83.1152 44.302C81.6032 44.8693 80.1262 45.5586 78.6992 46.3702L79.5892 47.9348C80.9328 47.1706 82.3236 46.5215 83.7474 45.9873L83.1152 44.302ZM78.6992 46.3702C76.4817 47.6316 74.3859 49.188 72.4683 51.0398L73.7187 52.3346C75.527 50.5883 77.5015 49.1223 79.5892 47.9348L78.6992 46.3702ZM72.4683 51.0398C71.6823 51.7988 70.9448 52.5895 70.256 53.4081L71.6332 54.5671C72.2822 53.7958 72.9774 53.0505 73.7187 52.3346L72.4683 51.0398ZM68.1241 56.2585C67.5762 57.0864 67.072 57.9352 66.6115 58.8015L68.2009 59.6464C68.6345 58.8307 69.1093 58.0315 69.6252 57.2518L68.1241 56.2585ZM66.6115 58.8015C66.2714 59.4413 65.9551 60.0907 65.6627 60.7482L67.3075 61.4795C67.5828 60.8603 67.8806 60.2488 68.2009 59.6464L66.6115 58.8015Z" fill="#F9BDFE"/>
<path d="M80.4057 72.9853C79.3572 72.0408 77.7307 72.1133 76.7729 73.1473C75.8151 74.1813 75.8886 75.7851 76.9371 76.7297L89.0391 87.631C90.5071 88.9534 92.7841 88.8518 94.1251 87.4043C94.1812 87.3428 94.1812 87.3428 94.2353 87.2796L111.506 66.7969C112.414 65.7201 112.264 64.1213 111.172 63.226C110.08 62.3306 108.459 62.4778 107.551 63.5546L91.3142 82.8116L80.4057 72.9853Z" fill="#E8F0FE" stroke="#C14DF0" stroke-width="1.8"/>
</svg>
