<svg width="28" height="28" viewBox="0 0 28 28" fill="none" xmlns="http://www.w3.org/2000/svg">
<g clip-path="url(#clip0_1_396)">
<path fill-rule="evenodd" clip-rule="evenodd" d="M6.1201 13.8186C6.1201 12.9513 6.26407 12.1197 6.52132 11.3398L2.02096 7.90326C1.14384 9.684 0.64978 11.6907 0.64978 13.8186C0.64978 15.9449 1.14342 17.9501 2.01908 19.7298L6.51694 16.2866C6.26219 15.5103 6.1201 14.6818 6.1201 13.8186Z" fill="#FBBC05"/>
<path fill-rule="evenodd" clip-rule="evenodd" d="M14.0215 5.9283C15.9057 5.9283 17.6076 6.59595 18.9448 7.68839L22.8346 3.80393C20.4643 1.74028 17.4252 0.465698 14.0215 0.465698C8.73707 0.465698 4.1954 3.48764 2.02075 7.90329L6.5209 11.3398C7.55784 8.19225 10.5136 5.9283 14.0215 5.9283Z" fill="#EA4335"/>
<path fill-rule="evenodd" clip-rule="evenodd" d="M14.0215 21.709C10.5138 21.709 7.55805 19.445 6.52111 16.2975L2.02075 19.7334C4.1954 24.1496 8.73707 27.1716 14.0215 27.1716C17.283 27.1716 20.3969 26.0134 22.7339 23.8436L18.4622 20.5412C17.2569 21.3005 15.739 21.709 14.0215 21.709Z" fill="#34A853"/>
<path fill-rule="evenodd" clip-rule="evenodd" d="M26.7854 13.8187C26.7854 13.0296 26.6637 12.1798 26.4814 11.3909H14.0214V16.55H21.1936C20.835 18.309 19.859 19.6612 18.4621 20.5412L22.7338 23.8436C25.1887 21.5652 26.7854 18.1711 26.7854 13.8187Z" fill="#4285F4"/>
</g>
<defs>
<clipPath id="clip0_1_396">
<rect width="26.7059" height="26.7059" fill="white" transform="translate(0.364685 0.465668)"/>
</clipPath>
</defs>
</svg>
